<svg width="64" height="64" viewBox="0 0 64 64" fill="none" xmlns="http://www.w3.org/2000/svg">
  <rect width="64" height="64" rx="18" fill="#0B1120" />
  <path d="M17 46.5V40.4C17 39.7333 17.15 39.1 17.45 38.5C17.7833 37.8667 18.2167 37.3333 18.75 36.9C19.2833 36.4333 19.8667 36.0667 20.5 35.8C21.1667 35.5 21.85 35.3 22.55 35.2L29.2 34.15C29.7333 34.05 30.1667 33.8333 30.5 33.5C30.8333 33.1667 31 32.7333 31 32.2C31 31.5667 30.7667 31.05 30.3 30.65C29.8667 30.2167 29.25 30 28.45 30H17.95V17.5H28.45C30.4833 17.5 32.3167 17.85 33.95 18.55C35.6167 19.2167 37.0333 20.15 38.2 21.35C39.3667 22.5167 40.2667 23.9167 40.9 25.55C41.5333 27.15 41.85 28.9 41.85 30.8C41.85 32.2 41.6667 33.4833 41.3 34.65C40.9667 35.7833 40.45 36.8167 39.75 37.75C39.0833 38.65 38.25 39.45 37.25 40.15C36.25 40.8167 35.1 41.3833 33.8 41.85L27.75 44C27.2167 44.2 26.85 44.4333 26.65 44.7C26.45 44.9667 26.35 45.25 26.35 45.55V46.5H17Z" fill="url(#paint0_linear_1_2)" />
  <circle cx="47" cy="18" r="5" fill="#38BDF8" />
  <defs>
    <linearGradient id="paint0_linear_1_2" x1="17" y1="17.5" x2="46.5" y2="49.2" gradientUnits="userSpaceOnUse">
      <stop stop-color="#F8FAFC" />
      <stop offset="1" stop-color="#38BDF8" />
    </linearGradient>
  </defs>
</svg>